<?xml version="1.0" encoding="UTF-8"?>
<svg version="1.1" xmlns="http://www.w3.org/2000/svg" width="512" height="512">
<path d="M0 0 C0.92158905 0.00215515 1.8431781 0.0043103 2.79269409 0.00653076 C62.82203248 0.2312746 120.37259626 21.44971938 165.4375 61.3125 C166.70787109 62.41658203 166.70787109 62.41658203 168.00390625 63.54296875 C178.72984866 72.99488269 188.64772782 83.02725905 197.4375 94.3125 C198.58412109 95.71628906 198.58412109 95.71628906 199.75390625 97.1484375 C231.17930463 136.39235394 251.36105951 189.16556747 251.640625 239.66796875 C251.64763931 240.5240271 251.65465363 241.38008545 251.66188049 242.26208496 C251.67927398 245.00811092 251.68573257 247.75392098 251.6875 250.5 C251.68817474 251.44001862 251.68884949 252.38003723 251.68954468 253.34854126 C251.67334569 267.5544479 251.1323721 281.32967305 248.4375 295.3125 C248.27652832 296.21242676 248.11555664 297.11235352 247.94970703 298.03955078 C240.6263968 338.4971465 222.93680944 377.77245826 196.4375 409.3125 C195.50746461 410.44632931 194.5777826 411.58044857 193.6484375 412.71484375 C182.81719077 425.78233768 170.89487353 437.94854908 157.4375 448.3125 C156.50550781 449.07304687 155.57351563 449.83359375 154.61328125 450.6171875 C111.33610291 485.3054252 55.90827651 502.85171625 0.8125 502.625 C-0.11003571 502.62317719 -1.03257141 502.62135437 -1.98306274 502.61947632 C-16.0484967 502.57276146 -29.71961857 501.98040079 -43.5625 499.3125 C-44.46242676 499.15152832 -45.36235352 498.99055664 -46.28955078 498.82470703 C-86.7471465 491.5013968 -126.02245826 473.81180944 -157.5625 447.3125 C-158.69632931 446.38246461 -159.83044857 445.4527826 -160.96484375 444.5234375 C-174.0311243 433.6931965 -186.20305345 421.77193244 -196.5625 408.3125 C-197.34625 407.34570312 -198.13 406.37890625 -198.9375 405.3828125 C-233.59983796 362.29370537 -251.10678687 306.62461111 -250.875 251.75 C-250.87284485 250.82841095 -250.8706897 249.9068219 -250.86846924 248.95730591 C-250.66620877 194.93330116 -233.48688687 140.84001376 -199.5625 98.3125 C-198.84578125 97.40371094 -198.1290625 96.49492188 -197.390625 95.55859375 C-185.26669303 80.44667146 -171.84287333 66.24896892 -156.5625 54.3125 C-155.59054688 53.52359375 -154.61859375 52.7346875 -153.6171875 51.921875 C-110.30001621 17.39841518 -55.03235943 -0.23245319 0 0 Z M-91.5625 77.3125 C-92.7601859 77.95615875 -93.95810163 78.59939003 -95.15625 79.2421875 C-139.59884665 103.47749154 -173.28305789 145.60989049 -188.00390625 193.92578125 C-203.04692422 245.40316417 -197.63745944 299.73449098 -171.89550781 346.93408203 C-163.33424033 362.2095157 -152.64140634 375.69978794 -140.5625 388.3125 C-140.09086426 388.81136719 -139.61922852 389.31023437 -139.13330078 389.82421875 C-103.4439847 427.43517427 -53.89517922 445.93098155 -2.8359375 448.5 C29.96447804 449.12626092 63.79659808 441.38091194 92.4375 425.3125 C93.63086222 424.66936871 94.82487562 424.02744426 96.01953125 423.38671875 C141.76461884 398.46907093 174.51141088 355.5221894 189.78515625 306.08984375 C203.40823084 259.6912997 199.54632414 205.77291367 176.4296875 162.90625 C175.76644292 161.70788028 175.10239021 160.50995745 174.4375 159.3125 C173.79384125 158.1148141 173.15060997 156.91689837 172.5078125 155.71875 C155.94281565 125.34192979 130.89009986 100.20543294 101.4375 82.3125 C100.34050781 81.63445312 99.24351562 80.95640625 98.11328125 80.2578125 C71.42706088 64.32666584 39.4847881 55.23271601 8.4375 54.3125 C7.2515625 54.27253906 6.065625 54.23257813 4.84375 54.19140625 C-28.42251594 53.62587973 -62.39492951 61.11715862 -91.5625 77.3125 Z " fill="#FFFFFF" transform="translate(255.5625,4.6875)"/>
<path d="M0 0 C9.76001843 9.97580115 12.45835858 21.18412735 12.43058777 34.79084778 C12.43285333 35.61465067 12.43511888 36.43845356 12.43745309 37.28722018 C12.44375758 40.03369836 12.44296602 42.78012674 12.44213867 45.52661133 C12.44513238 47.50154178 12.44853539 49.47647165 12.45231628 51.45140076 C12.46113889 56.80686192 12.46349367 62.16230709 12.46413207 67.51777482 C12.46484355 70.86624393 12.46697973 74.214709 12.46962929 77.56317711 C12.47887688 89.25216301 12.4829649 100.94113752 12.48217773 112.63012695 C12.48157707 123.51425615 12.49212827 134.39833576 12.5079214 145.2824524 C12.5210102 154.63723954 12.52636107 163.99201049 12.52572232 173.3468067 C12.52546774 178.92946758 12.52829737 184.51208437 12.53890038 190.0947361 C12.54860391 195.34703222 12.54864506 200.59924231 12.54138374 205.85154152 C12.54034071 207.77435431 12.54268399 209.69717252 12.5487442 211.61997604 C12.59470649 227.21879056 12.21896633 241.60925031 1.01953125 253.75390625 C-8.95159101 262.97889011 -19.12811806 265.12299443 -32.3203125 264.6875 C-42.58392259 264.07098131 -50.55526941 259.65354266 -57.703125 252.34765625 C-65.48524795 242.1876624 -67.85791482 232.48597537 -67.84356689 219.87995911 C-67.84653802 219.05348379 -67.84950914 218.22700848 -67.8525703 217.37548846 C-67.86120733 214.61986275 -67.86276129 211.86428073 -67.86425781 209.10864258 C-67.86888952 207.12710478 -67.87391465 205.14556787 -67.87930298 203.16403198 C-67.89239484 197.78984555 -67.89886563 192.4156716 -67.90331364 187.04147172 C-67.9062495 183.68025626 -67.91035527 180.31904418 -67.91481781 176.95783043 C-67.92848416 166.43074809 -67.93815509 155.90367351 -67.9420197 145.37658292 C-67.94649872 133.24424529 -67.96404307 121.11202043 -67.9930203 108.97971708 C-68.01466868 99.58838097 -68.02472566 90.19707652 -68.02606082 80.80571574 C-68.02710656 75.20284381 -68.0329653 69.600078 -68.05088043 63.99723244 C-68.06741575 58.72356138 -68.06949015 53.45007561 -68.06074142 48.17638779 C-68.05997398 46.24796107 -68.06427493 44.31952415 -68.07419968 42.39112282 C-68.15105205 26.5194761 -67.18599215 12.87921694 -56.04296875 0.50390625 C-40.0828116 -14.28659399 -16.26452784 -13.85592738 0 0 Z " fill="#FFFFFF" transform="translate(283.703125,128.65234375)"/>
</svg>
