<?xml version="1.0" encoding="UTF-8"?>
<svg version="1.1" xmlns="http://www.w3.org/2000/svg" width="512" height="512">
<path d="M0 0 C0.72703125 0.17160645 1.4540625 0.34321289 2.203125 0.52001953 C13.35075008 3.17184616 23.70697099 6.98362094 34 12 C35.12019531 12.54527344 36.24039062 13.09054688 37.39453125 13.65234375 C75.09285637 33.02572728 104.42901242 68.16010928 117.43823242 108.27319336 C121.71768188 122.08632381 124.18352357 136.16036433 124.11352539 150.64086914 C124.11367142 151.45172974 124.11381744 152.26259033 124.1139679 153.09802246 C124.11327842 155.74376218 124.10553182 158.38942902 124.09765625 161.03515625 C124.09578864 162.88317323 124.09436635 164.73119072 124.09336853 166.57920837 C124.0895704 171.4173624 124.0797635 176.25548588 124.06866455 181.09362793 C124.058392 186.04093004 124.05385844 190.98823714 124.04882812 195.93554688 C124.03813855 205.62371125 124.02109499 215.31185308 124 225 C125.30485352 224.98042236 126.60970703 224.96084473 127.95410156 224.94067383 C129.68293862 224.92483984 131.4117801 224.90948419 133.140625 224.89453125 C133.99865723 224.88039185 134.85668945 224.86625244 135.74072266 224.85168457 C142.2444529 224.80951341 147.32979371 225.63782288 153 229 C153.62777344 229.33902344 154.25554687 229.67804688 154.90234375 230.02734375 C162.7040266 234.82443977 167.08775106 242.74676638 169.36275291 251.38607407 C170.77840647 259.41446247 170.40539152 267.62362834 170.37231445 275.75048828 C170.37474546 277.84585755 170.37846776 279.94122565 170.38337708 282.03659058 C170.39274623 287.70171459 170.38339469 293.36666462 170.37004495 299.031775 C170.35869069 304.97193824 170.36284095 310.91209342 170.36479187 316.8522644 C170.36567345 326.82357612 170.35462171 336.79481967 170.33618164 346.76611328 C170.31500454 358.28314667 170.31150746 369.80008033 170.3177436 381.31712925 C170.32344379 392.41392588 170.3177846 403.51068751 170.30657005 414.6074791 C170.30193395 419.32256596 170.30104592 424.03763136 170.3031559 428.75271988 C170.30504351 434.30630435 170.29689846 439.85978773 170.2810955 445.41334915 C170.27686388 447.44784629 170.27599453 449.48235371 170.27878571 451.51685333 C170.28202452 454.30049946 170.27288312 457.08384674 170.26069641 459.86746216 C170.26447573 460.6664062 170.26825506 461.46535025 170.27214891 462.28850472 C170.18437246 473.67532123 167.05352254 482.93545101 158.85546875 491.1484375 C149.52364797 498.89499275 140.19077046 499.44210772 128.39393616 499.38768005 C126.91661295 499.39185759 125.43929295 499.39733741 123.96197885 499.40399987 C119.91979125 499.41841809 115.87780818 499.41422116 111.83560956 499.40683305 C107.46946318 499.40209472 103.10336063 499.41461708 98.73722839 499.42485046 C90.19054965 499.44203046 81.64394444 499.44288017 73.09725291 499.43763756 C66.14960489 499.43359332 59.20197858 499.43504243 52.25433159 499.44038582 C50.77012256 499.44150845 50.77012256 499.44150845 49.25592951 499.44265376 C47.24571462 499.44418527 45.23549974 499.44572361 43.22528487 499.44726873 C24.38193156 499.46099075 5.53861979 499.45555806 -13.30473257 499.44408352 C-30.53720558 499.43415033 -47.76957123 499.44709383 -65.00202768 499.47101771 C-82.70514634 499.49540948 -100.408215 499.50501646 -118.11135012 499.49836498 C-128.04681398 499.49487309 -137.98219526 499.49710298 -147.91764641 499.51461601 C-156.37494219 499.52933889 -164.83209724 499.52997222 -173.28939026 499.5125451 C-177.60257235 499.50403367 -181.91550305 499.50188903 -186.22867203 499.51719666 C-190.18088727 499.53104939 -194.13263587 499.52627336 -198.08482415 499.50695742 C-199.51069804 499.50319889 -200.93660936 499.50611519 -202.36244988 499.51656907 C-213.35977319 499.59143342 -222.37974171 497.90580078 -231.11328125 490.890625 C-239.18370461 482.80349269 -242.185958 473.46963613 -242.27214891 462.28850472 C-242.26647992 461.09008865 -242.26647992 461.09008865 -242.26069641 459.86746216 C-242.26452196 458.99365335 -242.26834751 458.11984455 -242.27228898 457.21955669 C-242.28253953 454.31574205 -242.27864203 451.41212809 -242.2746582 448.50830078 C-242.27900907 446.41647154 -242.28419347 444.3246439 -242.29014587 442.2328186 C-242.30350667 436.56748635 -242.30411779 430.90222094 -242.30158257 425.23687601 C-242.30051089 420.50042019 -242.30540128 415.76397777 -242.310188 411.02752483 C-242.32127307 399.8498826 -242.32172619 388.67227397 -242.31567383 377.49462891 C-242.30963405 365.97879351 -242.32194752 354.4630803 -242.3432439 342.94726574 C-242.36087939 333.04550021 -242.36685818 323.14377349 -242.36360615 313.24199283 C-242.36179628 307.33458499 -242.36440001 301.42726432 -242.37832069 295.51987076 C-242.39092608 289.96300055 -242.38892921 284.40632037 -242.37590981 278.84945297 C-242.3735504 276.81579269 -242.37625581 274.78211893 -242.38453293 272.74847412 C-242.44195745 257.53699981 -242.14425924 245.59655593 -231.18359375 234.09375 C-223.22554504 226.50546921 -215.88774094 224.73852152 -205.14453125 224.90234375 C-204.26398071 224.90939331 -203.38343018 224.91644287 -202.47619629 224.92370605 C-200.31739197 224.94200721 -198.15867382 224.97002767 -196 225 C-196.00666183 224.00458191 -196.01332367 223.00916382 -196.02018738 221.98358154 C-196.08152087 212.51265055 -196.12621975 203.04176086 -196.15543652 193.5706749 C-196.17096301 188.7037694 -196.19195711 183.83702669 -196.22631836 178.97021484 C-196.25938408 174.25634457 -196.27695027 169.5426289 -196.28463173 164.82865143 C-196.29009195 163.04769717 -196.30074824 161.26674947 -196.31719017 159.48586273 C-196.72670076 113.20679611 -179.35992431 74.40160475 -147.625 41.3125 C-141.83687646 35.69094117 -135.48232789 30.78763524 -129 26 C-128.42008301 25.57041992 -127.84016602 25.14083984 -127.24267578 24.69824219 C-110.53812291 12.51109578 -92.05868906 4.72898791 -72 0 C-71.31067383 -0.17644043 -70.62134766 -0.35288086 -69.91113281 -0.53466797 C-48.48778609 -5.90380777 -21.35203161 -5.35953213 0 0 Z M-104.1875 96.25 C-136.16902068 132.59725208 -127 178.57583817 -127 225 C-66.94 225 -6.88 225 55 225 C58.94264989 148.72756906 58.94264989 148.72756906 25.7890625 89.7265625 C6.49232471 71.57758606 -17.5324949 65.092866 -43.50976562 65.86816406 C-67.24426752 67.12469652 -88.10297927 79.32928095 -104.1875 96.25 Z " fill="#FAFAFA" transform="translate(292,8)"/>
</svg>
