<?xml version="1.0" encoding="UTF-8"?>
<svg version="1.1" xmlns="http://www.w3.org/2000/svg" width="512" height="512">
<path d="M0 0 C1.07167539 -0.00384115 2.14335079 -0.00768229 3.24750119 -0.01163983 C5.02003602 -0.01034011 5.02003602 -0.01034011 6.82837963 -0.00901413 C8.70635031 -0.01347081 8.70635031 -0.01347081 10.6222598 -0.01801753 C14.10418533 -0.02609518 17.58609025 -0.02787753 21.06802404 -0.028615 C24.820683 -0.03046422 28.57333123 -0.03801087 32.325984 -0.04475021 C40.53462363 -0.05833933 48.74325839 -0.06435911 56.9519074 -0.06876087 C62.07592609 -0.07152223 67.19994289 -0.07575937 72.3239603 -0.08026505 C86.50667007 -0.09245829 100.68937831 -0.10275761 114.8720932 -0.10614014 C116.23400608 -0.10646949 116.23400608 -0.10646949 117.62343235 -0.10680549 C118.53356433 -0.10702377 119.4436963 -0.10724204 120.38140804 -0.10746694 C122.22572633 -0.1079104 124.07004462 -0.10835697 125.91436291 -0.10880661 C126.82921128 -0.10902804 127.74405964 -0.10924947 128.68663069 -0.10947761 C143.5133877 -0.11342637 158.34009559 -0.13088251 173.16683362 -0.15416613 C188.38370651 -0.17786984 203.60055475 -0.19034153 218.81744641 -0.19150805 C227.36340839 -0.19242535 235.90930637 -0.19819136 244.45525074 -0.21632767 C251.73177098 -0.23171541 259.00820743 -0.23685697 266.28474084 -0.22858956 C269.99788174 -0.22467838 273.71085383 -0.22563534 277.42397404 -0.23964691 C281.44838401 -0.25469439 285.47241231 -0.24653329 289.49683666 -0.23606491 C290.67183438 -0.24412132 291.8468321 -0.25217772 293.05743581 -0.26047826 C299.69250401 -0.21997421 304.547198 0.15047963 309.68120861 4.77986526 C310.15042736 5.34963089 310.61964611 5.91939651 311.10308361 6.50642776 C311.58261486 7.07103714 312.06214611 7.63564651 312.55620861 8.21736526 C315.52809225 12.60357908 316.10443375 16.44160593 316.11378002 21.68388748 C316.11760557 22.32842192 316.12143112 22.97295635 316.12537259 23.63702214 C316.13566066 25.78872428 316.13171852 27.94015748 316.12774181 30.09187698 C316.13209065 31.63788982 316.13727437 33.1839005 316.14322948 34.72990799 C316.15661311 38.92418734 316.15719881 43.11837655 316.15466619 47.31267309 C316.15359592 50.81658436 316.15848132 54.32047744 316.16327161 57.82438481 C316.17436484 66.09259919 316.1748054 74.36076814 316.16875744 82.62898636 C316.16271854 91.1524145 316.17502691 99.67567752 316.19632751 108.19907749 C316.21395455 115.52238004 316.21994308 122.84563008 316.21668977 130.16895306 C316.21487834 134.54041033 316.21749896 138.91174984 316.2314043 143.28318787 C316.2439958 147.39544979 316.24202613 151.50745477 316.22899342 155.61971283 C316.22663086 157.12613131 316.22935083 158.63256795 316.23761654 160.13896561 C316.28779281 169.99681007 316.09938064 177.67809367 308.85308361 185.13142776 C302.40771561 188.97122147 296.07617781 190.0575083 288.64995861 188.74080276 C282.325408 187.06286077 278.2456592 183.7324667 274.85308361 178.13142776 C272.4106862 171.63684105 272.58421011 165.37220007 272.62603283 158.49495316 C272.62579176 157.21543746 272.62555069 155.93592176 272.62530231 154.61763287 C272.62485283 151.17247398 272.6364015 147.72745547 272.65052319 144.28232956 C272.66195615 141.04351574 272.66245177 137.8047076 272.66387463 134.56587601 C272.67434802 125.10854151 272.70227051 115.65123284 272.72808361 106.19392776 C272.76933361 85.05330276 272.81058361 63.91267776 272.85308361 42.13142776 C190.35308361 42.13142776 107.85308361 42.13142776 22.85308361 42.13142776 C22.85308361 180.07142776 22.85308361 318.01142776 22.85308361 460.13142776 C105.35308361 460.13142776 187.85308361 460.13142776 272.85308361 460.13142776 C272.7343899 418.08266387 272.7343899 418.08266387 272.58281994 376.03401566 C272.56927013 367.88618851 272.56927013 367.88618851 272.56675243 364.06720352 C272.56215699 361.40992632 272.55276205 358.75308252 272.53635693 356.09589005 C272.51178617 352.06216386 272.51136766 348.028754 272.51250744 343.99495316 C272.50171311 342.81881738 272.49091879 341.6426816 272.47979736 340.43090534 C272.50793194 332.97224814 272.96806736 325.88822067 277.64995861 319.79158401 C283.5519814 314.96372937 288.82724664 312.55236939 296.67730236 312.82674026 C303.15620298 313.73401899 308.35258634 315.90896605 312.41558361 321.13142776 C315.67801696 325.86334243 315.97912726 329.8662155 316.00025463 335.55690384 C316.00393132 336.19987828 316.00760801 336.84285273 316.01139611 337.50531125 C316.02240048 339.6577098 316.02627124 341.81006002 316.03008556 343.96248245 C316.03635264 345.50672432 316.04299966 347.05096468 316.04999828 348.5952034 C316.07101107 353.66455923 316.0813977 358.73391526 316.09136486 363.80330276 C316.09541338 365.55026388 316.09953033 367.29722484 316.10371494 369.04418564 C316.12276008 377.25184931 316.13699283 385.45950403 316.14532691 393.66718554 C316.15509878 403.13385577 316.18141978 412.60029215 316.22182781 422.06687999 C316.2520085 429.38932006 316.26679762 436.71169317 316.27010792 444.03419423 C316.27245607 448.4051993 316.28138581 452.77595434 316.3065691 457.14689255 C316.32988933 461.2608206 316.33406733 465.37433469 316.32380772 469.48831177 C316.32331321 470.9943225 316.32960848 472.50035389 316.34336376 474.00630188 C316.42100194 483.01349854 316.28126443 490.11282284 310.03667736 497.19002151 C309.46046642 497.64506058 308.88425549 498.10009964 308.29058361 498.56892776 C307.71179455 499.0420137 307.13300549 499.51509964 306.53667736 500.00252151 C303.31160987 502.16503777 300.47322048 502.25839232 296.71175385 502.26564884 C295.64131185 502.27010669 294.57086985 502.27456453 293.46799022 502.27915746 C292.28766457 502.2789731 291.10733893 502.27878873 289.89124584 502.27859879 C288.64067652 502.28227547 287.3901072 502.28595216 286.10164183 502.28974026 C282.62358003 502.29976335 279.14553548 502.30347755 275.66746128 502.30612957 C271.91885225 502.31003172 268.17025691 502.31961013 264.42165661 502.32834244 C255.36532225 502.34810949 246.30898677 502.35817341 237.25263622 502.36707023 C232.98845139 502.37145277 228.72426781 502.37681967 224.46008396 502.3820591 C210.28595805 502.39907169 196.11183292 502.41356601 181.93769836 502.42080784 C178.25902143 502.42271775 174.5803445 502.42463808 170.90166759 502.42659378 C169.98734385 502.42707752 169.0730201 502.42756126 168.13098957 502.42805966 C153.31850078 502.43636052 138.50609273 502.46169823 123.6936392 502.49417446 C108.4880571 502.52724098 93.28251604 502.54525623 78.0768978 502.54845208 C69.53867314 502.55061757 61.00056622 502.55937182 52.46237659 502.58491325 C45.19102157 502.6066147 37.91981287 502.61467344 30.64842913 502.60494647 C26.93903969 502.60040011 23.22995221 502.60230718 19.52060413 502.62170792 C15.49680327 502.64257136 11.47367277 502.63235974 7.44983959 502.61917496 C6.28066756 502.6301442 5.11149552 502.64111345 3.90689403 502.6524151 C-3.54472068 502.5934002 -9.44459254 501.78658825 -14.98676014 496.31502151 C-15.3489867 495.73881058 -15.71121326 495.16259964 -16.08441639 494.56892776 C-16.46468983 493.9901387 -16.84496326 493.41134964 -17.23676014 492.81502151 C-19.43805657 488.74309551 -19.29001616 484.87209261 -19.28113747 480.38199711 C-19.2834897 479.58064322 -19.28584193 478.77928933 -19.28826544 477.95365199 C-19.2949673 475.24562931 -19.29449686 472.53765447 -19.29408741 469.82962418 C-19.29738529 467.87758043 -19.3011107 465.92553737 -19.30522889 463.97349519 C-19.31526555 458.59137113 -19.31896836 453.20925823 -19.3216182 447.82712615 C-19.3255163 442.02942086 -19.33509495 436.23172445 -19.34383106 430.43402481 C-19.36360909 416.42399288 -19.37366321 402.41396022 -19.38255885 388.40391782 C-19.38693941 381.81062239 -19.39230681 375.21732777 -19.39754772 368.62403297 C-19.41456105 346.71394166 -19.42908105 324.80385091 -19.43629646 302.89375401 C-19.43677122 301.47655211 -19.43724711 300.05935022 -19.43772412 298.64214833 C-19.4379605 297.9393379 -19.43819688 297.23652747 -19.43844042 296.51241976 C-19.43964162 292.95158453 -19.44085707 289.39074931 -19.44208241 285.82991409 C-19.44232256 285.12325339 -19.4425627 284.41659268 -19.44281013 283.68851802 C-19.45070384 260.77460295 -19.47413687 237.86073963 -19.50663835 214.94684716 C-19.54093123 190.72581139 -19.5606471 166.50480591 -19.5639407 142.28374547 C-19.56610821 129.07861072 -19.57489203 115.87355202 -19.60040188 102.66843987 C-19.62207277 91.42440729 -19.63017708 80.18046924 -19.6204351 68.93641815 C-19.61587999 63.19775221 -19.617847 57.45928146 -19.63719654 51.72064209 C-19.65475436 46.46811436 -19.65389055 41.21592527 -19.63829925 35.96339431 C-19.63591194 34.06227341 -19.64030457 32.16112952 -19.6521279 30.2600439 C-19.66720267 27.67630509 -19.65760536 25.09377306 -19.64190102 22.51006413 C-19.65212322 21.77147804 -19.66234543 21.03289195 -19.6728774 20.27192447 C-19.59142207 14.13418923 -17.70214531 8.71962738 -13.33051014 4.29158401 C-12.7542992 3.92935745 -12.17808826 3.56713089 -11.58441639 3.19392776 C-10.7162328 2.62351761 -10.7162328 2.62351761 -9.83051014 2.04158401 C-6.48154282 0.23112141 -3.7288345 0.00500752 0 0 Z " fill="#FFFFFF" transform="translate(24.146916389465332,4.868572235107422)"/>
<path d="M0 0 C3.0863662 2.4637542 5.82738363 5.19123138 8.58325195 8.015625 C9.37647354 8.80811646 10.16969513 9.60060791 10.98695374 10.41711426 C13.58277313 13.01639164 16.16046344 15.63287925 18.73828125 18.25 C20.54937226 20.07042969 22.36158022 21.88974877 24.17485046 23.70800781 C28.44551978 27.9957606 32.70488736 32.29444286 36.9588539 36.5987587 C41.78641858 41.4822252 46.62818584 46.35150426 51.47123015 51.21961212 C59.75361052 59.54532611 68.02545115 67.88140259 76.28515625 76.22961426 C77.30872978 77.26402649 77.30872978 77.26402649 78.35298157 78.31933594 C79.29908011 79.27714462 79.29908011 79.27714462 80.26429176 80.25430298 C81.79151559 81.79031579 83.33574799 83.30654773 84.88444519 84.82080078 C89.29521778 89.36426718 90.43056591 93.64818871 90.4375 99.875 C90.20674617 107.47396233 89.28797778 111.87569615 83.70932007 117.176651 C82.78221222 117.99886642 81.85510437 118.82108185 80.89990234 119.66821289 C73.40132955 126.42470167 66.31852527 133.58314877 59.2101326 140.74526787 C56.7992006 143.17383874 54.38452927 145.59863625 51.96884155 148.0224762 C45.11045543 154.90511488 38.25794423 161.79358161 31.40966797 168.6862793 C27.19852416 172.92422089 22.98250782 177.15726444 18.7634697 181.38734627 C17.16442317 182.99258521 15.56727462 184.5997172 13.97209549 186.20879936 C11.74718604 188.45295476 9.5161561 190.69085418 7.28369141 192.92749023 C6.63216095 193.58778229 5.98063049 194.24807434 5.30935669 194.92837524 C-0.51748757 200.74283397 -5.60721691 205.08256294 -14.1875 205.3125 C-20.60896875 205.22778405 -25.04972073 203.77286827 -29.75390625 199.3515625 C-34.85434218 193.72264766 -36.44413721 189.06870873 -36.2421875 181.484375 C-35.13152492 170.09112657 -23.7447225 161.60252881 -16.12890625 154.03125 C-15.206577 153.11033569 -14.28424774 152.18942139 -13.33396912 151.24060059 C-10.90811523 148.81852446 -8.47927148 146.39946921 -6.04974365 143.9810791 C-3.56060884 141.50226163 -1.07438105 139.02053203 1.41210938 136.5390625 C6.27193458 131.68989076 11.13493178 126.84391137 16 122 C15.43595789 121.99978263 14.87191579 121.99956526 14.2907815 121.99934131 C-19.14499506 121.98582307 -52.58062828 121.94633031 -86.0163258 121.87314438 C-90.03171681 121.86437771 -94.04710825 121.85582789 -98.0625 121.84741211 C-98.86188628 121.84573305 -99.66127255 121.84405398 -100.48488265 121.84232404 C-113.42547064 121.81566013 -126.36601434 121.8065594 -139.30662698 121.80395857 C-152.58663327 121.80089824 -165.86651157 121.77894236 -179.14646006 121.73947543 C-187.33979747 121.71572015 -195.53287932 121.70667279 -203.72624642 121.71648689 C-209.34609328 121.72180598 -214.96571131 121.7087575 -220.58549303 121.6813371 C-223.82710589 121.6660606 -227.06810306 121.66153876 -230.30974579 121.67340279 C-233.82823114 121.68500556 -237.34527424 121.66593247 -240.86364746 121.63923645 C-241.88311887 121.64990971 -242.90259028 121.66058297 -243.95295477 121.67157966 C-251.90005377 121.55909876 -256.84278111 119.2403036 -262.375 113.5625 C-266.48158882 107.08672532 -267.01607789 100.22818259 -265.5703125 92.7890625 C-263.67138768 86.67030475 -259.61567722 83.10507999 -254.17882752 79.93969691 C-251.71421441 78.87674479 -249.99858323 78.74579042 -247.32235336 78.73828697 C-246.38083915 78.73082148 -245.43932495 78.72335599 -244.46928 78.71566427 C-243.43815723 78.717599 -242.40703445 78.71953374 -241.34466553 78.7215271 C-239.69795093 78.7128385 -239.69795093 78.7128385 -238.01796937 78.70397437 C-234.32672876 78.68692246 -230.6356128 78.68409337 -226.94433594 78.68115234 C-224.30337812 78.67185775 -221.66243424 78.66177729 -219.02148438 78.65071106 C-213.32918579 78.62842993 -207.63690521 78.61342179 -201.94457245 78.60334396 C-193.71440719 78.58876261 -185.48430465 78.56322733 -177.25417617 78.53501268 C-163.90156373 78.4895348 -150.54894227 78.45292411 -137.19628906 78.421875 C-124.22491877 78.39169354 -111.25357057 78.35734513 -98.28222656 78.31738281 C-97.48276264 78.31492126 -96.68329872 78.31245972 -95.85960862 78.30992357 C-91.84895985 78.29754905 -87.83831134 78.2850925 -83.82766294 78.27259517 C-50.55180523 78.16901245 -17.27592334 78.07981412 16 78 C15.42228348 77.43338654 14.84456696 76.86677307 14.24934387 76.2829895 C8.77848251 70.91276153 3.3201008 65.53028384 -2.12505627 60.13400459 C-4.92418294 57.36085221 -7.72771448 54.59249411 -10.54223633 51.83496094 C-13.26371 49.16824383 -15.97239835 46.48911342 -18.67305946 43.80132675 C-19.69998689 42.78356146 -20.73126887 41.77016861 -21.76714134 40.76150894 C-28.86664399 33.84100886 -35.90811701 26.72272412 -36.5 16.3125 C-36.03530027 9.17873114 -32.80626788 4.03513778 -28 -1 C-18.62537128 -7.63083495 -9.2764691 -5.71339305 0 0 Z " fill="#FFFFFF" transform="translate(417,156)"/>
</svg>
