<?xml version="1.0" encoding="UTF-8"?>
<svg version="1.1" xmlns="http://www.w3.org/2000/svg" width="512" height="512">
<path d="M0 0 C2.0189126 1.62257798 4.0183847 3.26957669 6 4.9375 C7.08417965 5.83128231 8.16882444 6.72450066 9.25390625 7.6171875 C12.5428853 10.34489407 15.78122965 13.12744653 19 15.9375 C19.5048291 16.37771484 20.0096582 16.81792969 20.52978516 17.27148438 C26.48674984 22.49627542 31.93219108 27.85612929 37 33.9375 C38.21236328 35.31808594 38.21236328 35.31808594 39.44921875 36.7265625 C76.84546568 79.48939165 97.55136628 134.23424748 97.3125 191 C97.30976578 192.35153671 97.30976578 192.35153671 97.30697632 193.7303772 C97.25960723 207.660748 96.67943093 221.23178885 94 234.9375 C93.83371094 235.82775879 93.66742188 236.71801758 93.49609375 237.63525391 C87.91925903 266.81552519 76.46819663 295.17184019 60 319.9375 C59.55188965 320.61184082 59.1037793 321.28618164 58.64208984 321.98095703 C52.14566637 331.65194412 45.13457262 340.70730161 37.37548828 349.39453125 C36.08113857 350.84648194 34.80364189 352.31340633 33.52734375 353.78125 C29.68897936 358.15290344 25.78701271 362.23332364 21.33203125 365.9765625 C19.50985625 367.50877665 17.72537153 369.06419838 15.94921875 370.6484375 C-25.72892018 407.55887736 -80.76303886 428.47519961 -136.38354492 428.19824219 C-138.9323715 428.18752157 -141.48049138 428.19821427 -144.02929688 428.2109375 C-200.65783555 428.26305749 -254.91693943 405.37625884 -297 367.9375 C-297.75506836 367.27500244 -297.75506836 367.27500244 -298.52539062 366.59912109 C-337.29379194 332.52124844 -362.39644949 285.43504259 -372 234.9375 C-372.16516113 234.091875 -372.33032227 233.24625 -372.50048828 232.375 C-377.4051119 206.08175402 -377.30478968 176.14817344 -372 149.9375 C-371.75056641 148.63135742 -371.75056641 148.63135742 -371.49609375 147.29882812 C-363.22458998 104.6239957 -344.02688866 66.18646724 -315 33.9375 C-314.49436523 33.37015137 -313.98873047 32.80280273 -313.46777344 32.21826172 C-307.02286082 25.00200559 -300.41357688 18.17830766 -293 11.9375 C-292.1347168 11.20370117 -292.1347168 11.20370117 -291.25195312 10.45507812 C-279.23334633 0.32174299 -269.99646504 -6.09845883 -253.51953125 -4.87890625 C-244.63224711 -3.35312473 -237.08275688 1.87747856 -231.46875 8.7890625 C-225.89217785 16.94628241 -223.75974221 25.8217837 -225.4609375 35.58203125 C-228.51082403 48.4094952 -236.06225528 55.05810083 -246 62.9375 C-248.06986376 64.70506407 -250.11002308 66.50060814 -252.14453125 68.30859375 C-253.39417718 69.40565133 -254.66314433 70.48103914 -255.94921875 71.53515625 C-261.78058217 76.38125984 -266.3549397 81.96641394 -271 87.9375 C-271.74378906 88.865625 -272.48757813 89.79375 -273.25390625 90.75 C-295.79610071 119.60400891 -306.22113686 154.96266991 -306.25 191.25 C-306.25067474 192.01038574 -306.25134949 192.77077148 -306.25204468 193.55419922 C-306.23554163 205.26365408 -305.70743961 216.50011362 -303 227.9375 C-302.83902832 228.65647461 -302.67805664 229.37544922 -302.51220703 230.11621094 C-295.67809027 259.96049027 -280.05334098 286.91126895 -259 308.9375 C-258.35417969 309.64648438 -257.70835937 310.35546875 -257.04296875 311.0859375 C-230.2991864 339.41491536 -188.7032497 357.94085357 -149.87237549 359.22612 C-146.24784648 359.30692741 -142.62532169 359.32314923 -139 359.3125 C-137.85064468 359.31068726 -137.85064468 359.31068726 -136.67807007 359.30883789 C-96.61475286 359.13813201 -59.21679786 344.12230183 -29 317.9375 C-27.73929687 316.86048828 -27.73929687 316.86048828 -26.453125 315.76171875 C5.58648914 287.75193186 25.04176644 246.78474767 28.4375 204.5625 C30.56989856 171.78020027 24.013474 139.768276 8 110.9375 C7.45988281 109.92171875 6.91976563 108.9059375 6.36328125 107.859375 C-3.87849477 89.31010512 -17.99049467 73.43334044 -34.75 60.59716797 C-54.19422612 45.68958465 -54.19422612 45.68958465 -57 32.9375 C-58.20356152 21.33172824 -56.81858168 12.36622119 -49.5 3.1875 C-35.96723253 -11.10553531 -15.36717002 -11.34243501 0 0 Z " fill="#FFFFFF" transform="translate(395,79.0625)"/>
<path d="M0 0 C7.0968828 5.64925994 11.71079185 13.48407744 13.60546875 22.375 C13.70603893 25.20157296 13.75328656 28.00366901 13.75263977 30.83033752 C13.75631646 31.6917071 13.75999315 32.55307668 13.76378125 33.44054836 C13.77481039 36.33219777 13.77866066 39.22381123 13.7824707 42.11547852 C13.78873602 44.18686538 13.79538288 46.25825111 13.80238342 48.32963562 C13.82342096 55.13771787 13.83378662 61.94580034 13.84375 68.75390625 C13.84779789 71.09886118 13.85191482 73.44381599 13.85610008 75.78877068 C13.87515233 86.80761421 13.8893824 97.82645105 13.89771205 108.84530789 C13.90748017 121.55672038 13.93378861 134.26795854 13.97421294 146.97930962 C14.00439742 156.8087817 14.01918321 166.63820388 14.02249306 176.4677214 C14.02484119 182.33612454 14.03377074 188.20434144 14.05895424 194.07269478 C14.0822801 199.59751476 14.0864499 205.12202649 14.07619286 210.64688301 C14.07569846 212.66926093 14.08199033 214.69165426 14.0957489 216.71398544 C14.18369094 230.41222746 13.8170999 243.00416747 3.60546875 253.375 C-4.05494075 259.84444372 -12.85353542 263.03322989 -22.890625 262.65625 C-32.71425237 261.55281604 -41.39243333 257.41061726 -47.70703125 249.6875 C-55.19647154 238.26158217 -54.97020294 227.02672747 -54.91210938 213.83984375 C-54.91753646 211.76742055 -54.92466241 209.69500121 -54.93334961 207.62258911 C-54.95151595 202.01927779 -54.94454303 196.41626253 -54.93183327 190.81294632 C-54.92167091 184.93510418 -54.93110792 179.05728655 -54.93737793 173.17944336 C-54.94464491 163.31066358 -54.93509151 153.44200374 -54.91601562 143.57324219 C-54.89424881 132.18114707 -54.90130084 120.78933836 -54.92332125 109.39725018 C-54.94150226 99.59733735 -54.94402035 89.7975105 -54.93356657 79.99758625 C-54.92734651 74.15279258 -54.92645505 68.3081333 -54.93971252 62.46334839 C-54.95130968 56.96711771 -54.94317461 51.47125451 -54.9201355 45.97506332 C-54.91486905 43.963984 -54.91632659 41.95287349 -54.92518616 39.94180679 C-54.98041161 26.12704119 -54.45246001 13.94277768 -44.39453125 3.375 C-31.97818304 -7.95942575 -14.02313898 -9.51651846 0 0 Z " fill="#FFFFFF" transform="translate(276.39453125,10.625)"/>
</svg>
