<?xml version="1.0" encoding="UTF-8"?>
<svg version="1.1" xmlns="http://www.w3.org/2000/svg" width="500" height="500">
<path d="M0 0 C1.08667969 0.01087646 1.08667969 0.01087646 2.1953125 0.02197266 C15.397265 0.21592564 28.16099193 3.15173356 41 6 C42.18505127 6.26151855 42.18505127 6.26151855 43.39404297 6.52832031 C58.87565123 10.00805007 73.78442364 14.93467172 88 22 C89.28749911 22.62553811 90.5752729 23.2505111 91.86328125 23.875 C108.27472205 31.8885072 123.22053576 41.28794203 138 52 C138.74813965 52.51715576 139.4962793 53.03431152 140.26708984 53.56713867 C140.8389502 54.03998291 141.41081055 54.51282715 142 55 C142 55.66 142 56.32 142 57 C142.55816406 57.24105469 143.11632812 57.48210937 143.69140625 57.73046875 C146.48892209 59.26886579 148.58486915 61.15561964 150.9375 63.3125 C152.26201172 64.52679688 152.26201172 64.52679688 153.61328125 65.765625 C156.13392873 68.12538009 158.59033681 70.52692462 161 73 C161.85271484 73.80244141 161.85271484 73.80244141 162.72265625 74.62109375 C168.33806392 79.99089711 173.04789498 85.93259719 177.64501953 92.17529297 C179.00044922 94.00060495 180.38745991 95.79849927 181.77734375 97.59765625 C194.66515186 114.66340418 205.78279907 135.49187195 212 156 C212.31904297 157.04365723 212.31904297 157.04365723 212.64453125 158.10839844 C223.20690986 193.3317692 226.16590896 232.70334928 220 269 C219.70996094 270.75376953 219.70996094 270.75376953 219.4140625 272.54296875 C215.15246709 295.93160707 206.40636529 317.5386825 194.94726562 338.27294922 C194.16834619 339.69307192 193.4163052 341.12790437 192.671875 342.56640625 C183.99569254 359.15502271 170.81646467 374.01808024 158.125 387.625 C157.51889893 388.27581543 156.91279785 388.92663086 156.28833008 389.59716797 C152.46208651 393.63589319 148.54312339 397.75834696 144 401 C143.34 401 142.68 401 142 401 C141.67 401.99 141.34 402.98 141 404 C139.22265625 405.60546875 139.22265625 405.60546875 137.0625 407.1875 C136.35222656 407.71730469 135.64195312 408.24710937 134.91015625 408.79296875 C133 410 133 410 131 410 C131 410.66 131 411.32 131 412 C128.99212726 413.61423204 126.98903104 415.0981292 124.875 416.5625 C124.23973389 417.00650146 123.60446777 417.45050293 122.94995117 417.90795898 C120.97279818 419.28115142 118.98705762 420.64119229 117 422 C116.42878418 422.39703125 115.85756836 422.7940625 115.26904297 423.203125 C105.39612775 430.03664498 94.93439886 435.0985379 84 440 C82.74607602 440.57418003 81.49216832 441.14839562 80.23828125 441.72265625 C59.73570392 450.86348605 38.16659953 455.21999812 16 458 C15.00871094 458.1340625 14.01742188 458.268125 12.99609375 458.40625 C-0.47937398 459.96360743 -14.46087241 459.43746574 -27.9375 458.1875 C-29.15167603 458.08248169 -29.15167603 458.08248169 -30.39038086 457.9753418 C-35.45261916 457.44205485 -39.41859697 456.22664728 -44 454 C-43.43052538 449.03881433 -41.15812697 445.35471338 -38.6875 441.125 C-38.29626953 440.44308594 -37.90503906 439.76117188 -37.50195312 439.05859375 C-36.75922765 437.76529068 -36.01375141 436.47355979 -35.2644043 435.18408203 C-33.99279331 433.11653036 -33.99279331 433.11653036 -33.30827332 431.21936035 C-32.39499401 429.13668829 -31.57809261 427.6452582 -30 426 C-26.7493494 424.98072296 -23.59716573 425.11667564 -20.21484375 425.203125 C-19.24454727 425.19794861 -18.27425079 425.19277222 -17.27455139 425.18743896 C-14.16117446 425.17553878 -11.05060669 425.20996159 -7.9375 425.25 C11.75852044 425.37215072 29.83291901 424.42109559 48.5625 417.8125 C50.29052856 417.21550293 50.29052856 417.21550293 52.0534668 416.60644531 C73.48906855 409.0742484 94.84232776 399.18471609 112 384 C116.73368607 380 116.73368607 380 119 380 C119 379.34 119 378.68 119 378 C120.6796875 376.2734375 120.6796875 376.2734375 122.875 374.375 C123.95394531 373.42753906 123.95394531 373.42753906 125.0546875 372.4609375 C127 371 127 371 129 371 C129.66 369.68 130.32 368.36 131 367 C131.66 367 132.32 367 133 367 C133.38285156 366.12021484 133.38285156 366.12021484 133.7734375 365.22265625 C135.12144779 362.77992422 136.57875971 361.32476943 138.625 359.4375 C142.81815401 355.38972907 146.05854429 350.93010239 149.3359375 346.125 C149.88507813 345.42375 150.43421875 344.7225 151 344 C151.66 344 152.32 344 153 344 C153.38285156 342.91138672 153.38285156 342.91138672 153.7734375 341.80078125 C155.07165933 338.83637026 156.62143546 336.72188941 158.625 334.1875 C163.76424847 327.25462594 167.38660671 319.80039907 171 312 C171.31356445 311.32743164 171.62712891 310.65486328 171.95019531 309.96191406 C193.02100585 264.4004232 195.67926639 212.90060978 179.74609375 165.25 C178.58444971 162.12161209 177.31911713 159.06500745 176 156 C175.49334488 154.74276958 174.98822328 153.48492042 174.484375 152.2265625 C170.34938094 142.11537362 165.05880031 133.07163244 159 124 C158.37996094 123.06285156 157.75992187 122.12570313 157.12109375 121.16015625 C144.95719963 103.29531872 128.36081221 83.14098608 109.4765625 72.05078125 C108.98929687 71.70402344 108.50203125 71.35726562 108 71 C108 70.34 108 69.68 108 69 C106.95392578 68.62101562 106.95392578 68.62101562 105.88671875 68.234375 C102.63782646 66.84513283 99.80397116 65.13014509 96.8125 63.25 C95.94625 62.71330688 95.94625 62.71330688 95.0625 62.16577148 C92.57718402 60.62588128 90.10634071 59.07035943 87.66796875 57.45703125 C69.59339927 45.83068656 47.05880964 38.68192407 26 35 C25.13028564 34.83153564 24.26057129 34.66307129 23.36450195 34.48950195 C13.54421233 32.74600253 3.87678932 32.64524404 -6.0625 32.6875 C-7.35850632 32.68973572 -7.35850632 32.68973572 -8.68069458 32.6920166 C-21.34086742 32.73132708 -33.60906816 33.19014929 -46 36 C-46.68384766 36.14453613 -47.36769531 36.28907227 -48.07226562 36.43798828 C-75.64745617 42.31626899 -102.55052562 54.55436102 -125.25 71.1875 C-126.01159424 71.7451001 -126.77318848 72.3027002 -127.55786133 72.87719727 C-133.4150321 77.29646921 -138.48325315 82.30332396 -143.53173828 87.61010742 C-144.65517248 88.77254124 -145.82280063 89.89204765 -147 91 C-147.66 91 -148.32 91 -149 91 C-149 91.66 -149 92.32 -149 93 C-149.66 93 -150.32 93 -151 93 C-151.26039063 93.58523437 -151.52078125 94.17046875 -151.7890625 94.7734375 C-153.07962825 97.14641323 -154.49194138 98.69426901 -156.375 100.625 C-177.34237747 123.93890708 -189.74862824 154.57685943 -197.4375 184.5625 C-197.67259277 185.47636475 -197.90768555 186.39022949 -198.14990234 187.33178711 C-201.57535699 201.55288327 -202.3825004 215.69253647 -202.3125 230.25 C-202.31034485 231.06148499 -202.3081897 231.87296997 -202.30596924 232.70904541 C-202.25356233 245.03193929 -201.77103182 256.94738092 -199 269 C-198.80132324 269.89219238 -198.60264648 270.78438477 -198.39794922 271.70361328 C-194.18149522 290.22126856 -188.13035721 308.29559646 -179 325 C-178.34 325 -177.68 325 -177 325 C-176.55720703 324.21987549 -176.11441406 323.43975098 -175.65820312 322.63598633 C-173.97514749 319.6733443 -172.28999223 316.71191575 -170.60351562 313.7512207 C-169.88134938 312.48247686 -169.15996394 311.2132882 -168.43945312 309.94360352 C-163.46677177 301.18237791 -158.33773055 292.54449969 -153 284 C-146.22041673 285.08608844 -141.06066062 287.27091936 -135.25 290.875 C-134.52167969 291.30941406 -133.79335937 291.74382812 -133.04296875 292.19140625 C-129.13195124 294.55505204 -125.49690624 297.04002031 -122 300 C-122.58430627 304.54555904 -124.47895511 308.03940837 -126.75 311.9375 C-127.13760498 312.61482178 -127.52520996 313.29214355 -127.92456055 313.98999023 C-132.56517224 322.06089314 -137.32627826 330.06301657 -142.08203125 338.06640625 C-143.77965989 340.92690916 -145.46434501 343.79252552 -147.109375 346.68359375 C-148.79382423 349.63834044 -150.5127562 352.56798794 -152.24755859 355.49316406 C-155.69635806 361.30956366 -159.09642856 367.147775 -162.40234375 373.046875 C-162.97863525 374.07490234 -163.55492676 375.10292969 -164.14868164 376.16210938 C-165.28082634 378.18719298 -166.40905988 380.21446921 -167.53295898 382.24414062 C-170.07331679 386.78851932 -172.53128146 391.07883991 -176 395 C-180.92112993 394.41710888 -184.5889494 392.23086125 -188.8125 389.8125 C-189.97144775 389.15906616 -189.97144775 389.15906616 -191.15380859 388.49243164 C-198.88986695 384.11018659 -206.55966566 379.61182499 -214.23120117 375.11791992 C-221.84577066 370.65937707 -229.51165988 366.30435022 -237.21484375 362.00146484 C-241.33480485 359.6901847 -245.43044584 357.33621077 -249.52734375 354.984375 C-251.9721277 353.5873556 -254.42112096 352.2017913 -256.87890625 350.828125 C-257.83482666 350.29070679 -257.83482666 350.29070679 -258.81005859 349.74243164 C-260.58385953 348.74573543 -262.36021235 347.75358472 -264.13671875 346.76171875 C-265.55404297 345.88966797 -265.55404297 345.88966797 -267 345 C-267.66644531 344.59394531 -268.33289063 344.18789063 -269.01953125 343.76953125 C-270 342 -270 342 -269.4609375 338.32421875 C-268.11175789 333.8066365 -265.99851314 329.86531247 -263.625 325.8125 C-263.23828125 325.12736328 -262.8515625 324.44222656 -262.453125 323.73632812 C-256.74084934 313.77818313 -256.74084934 313.77818313 -252.97265625 312.09375 C-247.63982878 311.84030869 -242.05278021 316.58098688 -237.75 319.375 C-232.99803316 322.45949443 -228.13848477 325.02544356 -223.01953125 327.4453125 C-219.20047552 329.41165685 -215.61211128 331.68016989 -212 334 C-212.40726318 333.10414185 -212.40726318 333.10414185 -212.82275391 332.19018555 C-240.64744179 270.61201996 -243.01021743 205.58314897 -219.4375 142.12109375 C-216.55268406 134.64900438 -212.93550793 127.72070793 -208.97851562 120.77246094 C-207.54646798 118.17848242 -206.31629831 115.49619188 -205.0625 112.8125 C-199.88406708 102.37004022 -192.29023309 93.23056564 -185.13574219 84.08618164 C-182.85812595 81.1799601 -182.85812595 81.1799601 -181 78 C-180.34 78 -179.68 78 -179 78 C-179 77.34 -179 76.68 -179 76 C-178.34 76 -177.68 76 -177 76 C-176.731875 75.4225 -176.46375 74.845 -176.1875 74.25 C-174.97070811 71.94449957 -173.69666121 69.97943808 -172 68 C-171.34 68 -170.68 68 -170 68 C-170 67.34 -170 66.68 -170 66 C-169.34 66 -168.68 66 -168 66 C-167.72671875 65.40316406 -167.4534375 64.80632812 -167.171875 64.19140625 C-163.81216905 57.90875613 -157.35541987 53.55198758 -151.875 49.1875 C-151.27719727 48.70724365 -150.67939453 48.2269873 -150.06347656 47.73217773 C-146.83682473 45.20648511 -143.94753188 43.28853399 -140 42 C-140 41.34 -140 40.68 -140 40 C-136.02540845 37.72082016 -132.04685981 35.44873214 -128.06591797 33.18066406 C-126.05227438 32.02987461 -124.04351236 30.87092344 -122.03515625 29.7109375 C-83.88661882 7.79622049 -43.89410652 -0.67984677 0 0 Z " fill="#ECECEC" transform="translate(274,21)"/>
<path d="M0 0 C0.66 0.33 1.32 0.66 2 1 C1.33613281 1.59167969 0.67226562 2.18335937 -0.01171875 2.79296875 C-5.4100062 7.61146439 -5.4100062 7.61146439 -10.625 12.625 C-13.92858349 15.92858349 -17.46090044 18.95268598 -21 22 C-21.33 21.34 -21.66 20.68 -22 20 C-21.34 20 -20.68 20 -20 20 C-19.73058594 19.40574219 -19.46117188 18.81148437 -19.18359375 18.19921875 C-15.10346316 10.61798601 -6.57745032 5.24530848 0 0 Z " fill="#FAFAFA" transform="translate(126,67)"/>
<path d="M0 0 C0 5.79772086 -5.13197956 10.61508222 -8.5 15.125 C-9.2528125 16.13820313 -10.005625 17.15140625 -10.78125 18.1953125 C-12.72784731 20.655976 -14.72852222 22.84209611 -17 25 C-15.68442446 21.35612522 -14.09124608 18.49153555 -11.77734375 15.390625 C-11.15666016 14.55402344 -10.53597656 13.71742187 -9.89648438 12.85546875 C-9.25001953 11.99566406 -8.60355469 11.13585937 -7.9375 10.25 C-6.96200195 8.93708984 -6.96200195 8.93708984 -5.96679688 7.59765625 C-1.20310125 1.20310125 -1.20310125 1.20310125 0 0 Z " fill="#F9F9F9" transform="translate(89,105)"/>
<path d="M0 0 C0.99 0.33 1.98 0.66 3 1 C0.03 3.475 0.03 3.475 -3 6 C-3.33 5.34 -3.66 4.68 -4 4 C-3.34 4 -2.68 4 -2 4 C-1.34 2.68 -0.68 1.36 0 0 Z " fill="#F4F4F5" transform="translate(108,83)"/>
<path d="" fill="#FFFFFF" transform="translate(0,0)"/>
<path d="" fill="#FFFFFF" transform="translate(0,0)"/>
<path d="" fill="#FFFFFF" transform="translate(0,0)"/>
<path d="" fill="#FFFFFF" transform="translate(0,0)"/>
<path d="" fill="#FFFFFF" transform="translate(0,0)"/>
<path d="" fill="#FFFFFF" transform="translate(0,0)"/>
<path d="" fill="#FFFFFF" transform="translate(0,0)"/>
<path d="" fill="#FFFFFF" transform="translate(0,0)"/>
<path d="" fill="#FFFFFF" transform="translate(0,0)"/>
<path d="" fill="#FFFFFF" transform="translate(0,0)"/>
<path d="" fill="#FFFFFF" transform="translate(0,0)"/>
<path d="" fill="#FFFFFF" transform="translate(0,0)"/>
<path d="" fill="#FFFFFF" transform="translate(0,0)"/>
<path d="" fill="#FFFFFF" transform="translate(0,0)"/>
<path d="" fill="#FFFFFF" transform="translate(0,0)"/>
<path d="" fill="#FFFFFF" transform="translate(0,0)"/>
<path d="" fill="#FFFFFF" transform="translate(0,0)"/>
<path d="" fill="#FFFFFF" transform="translate(0,0)"/>
<path d="" fill="#FFFFFF" transform="translate(0,0)"/>
<path d="" fill="#FFFFFF" transform="translate(0,0)"/>
<path d="" fill="#FFFFFF" transform="translate(0,0)"/>
<path d="" fill="#FFFFFF" transform="translate(0,0)"/>
<path d="" fill="#FFFFFF" transform="translate(0,0)"/>
<path d="" fill="#FFFFFF" transform="translate(0,0)"/>
<path d="" fill="#FFFFFF" transform="translate(0,0)"/>
<path d="" fill="#FFFFFF" transform="translate(0,0)"/>
<path d="" fill="#FFFFFF" transform="translate(0,0)"/>
<path d="" fill="#FFFFFF" transform="translate(0,0)"/>
<path d="" fill="#FFFFFF" transform="translate(0,0)"/>
<path d="" fill="#FFFFFF" transform="translate(0,0)"/>
<path d="" fill="#FFFFFF" transform="translate(0,0)"/>
<path d="" fill="#FFFFFF" transform="translate(0,0)"/>
<path d="" fill="#FFFFFF" transform="translate(0,0)"/>
<path d="" fill="#FFFFFF" transform="translate(0,0)"/>
<path d="" fill="#FFFFFF" transform="translate(0,0)"/>
<path d="" fill="#FFFFFF" transform="translate(0,0)"/>
<path d="" fill="#FFFFFF" transform="translate(0,0)"/>
<path d="" fill="#FFFFFF" transform="translate(0,0)"/>
<path d="" fill="#FFFFFF" transform="translate(0,0)"/>
<path d="" fill="#FFFFFF" transform="translate(0,0)"/>
<path d="" fill="#FFFFFF" transform="translate(0,0)"/>
<path d="" fill="#FFFFFF" transform="translate(0,0)"/>
<path d="" fill="#FFFFFF" transform="translate(0,0)"/>
<path d="" fill="#FFFFFF" transform="translate(0,0)"/>
<path d="" fill="#FFFFFF" transform="translate(0,0)"/>
<path d="" fill="#FFFFFF" transform="translate(0,0)"/>
<path d="" fill="#FFFFFF" transform="translate(0,0)"/>
<path d="" fill="#FFFFFF" transform="translate(0,0)"/>
<path d="" fill="#FFFFFF" transform="translate(0,0)"/>
<path d="" fill="#FFFFFF" transform="translate(0,0)"/>
<path d="" fill="#FFFFFF" transform="translate(0,0)"/>
<path d="" fill="#FFFFFF" transform="translate(0,0)"/>
<path d="" fill="#FFFFFF" transform="translate(0,0)"/>
<path d="" fill="#FFFFFF" transform="translate(0,0)"/>
<path d="" fill="#FFFFFF" transform="translate(0,0)"/>
<path d="" fill="#FFFFFF" transform="translate(0,0)"/>
<path d="" fill="#FFFFFF" transform="translate(0,0)"/>
<path d="" fill="#FFFFFF" transform="translate(0,0)"/>
<path d="" fill="#FFFFFF" transform="translate(0,0)"/>
<path d="" fill="#FFFFFF" transform="translate(0,0)"/>
<path d="" fill="#FFFFFF" transform="translate(0,0)"/>
<path d="" fill="#FFFFFF" transform="translate(0,0)"/>
<path d="" fill="#FFFFFF" transform="translate(0,0)"/>
<path d="" fill="#FFFFFF" transform="translate(0,0)"/>
<path d="" fill="#FFFFFF" transform="translate(0,0)"/>
<path d="" fill="#FFFFFF" transform="translate(0,0)"/>
<path d="" fill="#FFFFFF" transform="translate(0,0)"/>
<path d="" fill="#FFFFFF" transform="translate(0,0)"/>
<path d="" fill="#FFFFFF" transform="translate(0,0)"/>
<path d="" fill="#FFFFFF" transform="translate(0,0)"/>
<path d="" fill="#FFFFFF" transform="translate(0,0)"/>
<path d="" fill="#FFFFFF" transform="translate(0,0)"/>
<path d="" fill="#FFFFFF" transform="translate(0,0)"/>
<path d="" fill="#FFFFFF" transform="translate(0,0)"/>
<path d="" fill="#FFFFFF" transform="translate(0,0)"/>
<path d="" fill="#FFFFFF" transform="translate(0,0)"/>
<path d="" fill="#FFFFFF" transform="translate(0,0)"/>
<path d="" fill="#FFFFFF" transform="translate(0,0)"/>
<path d="" fill="#FFFFFF" transform="translate(0,0)"/>
</svg>
