<?xml version="1.0" encoding="UTF-8"?>
<svg version="1.1" xmlns="http://www.w3.org/2000/svg" width="512" height="512">
<path d="M0 0 C1.27985023 -0.01058945 1.27985023 -0.01058945 2.58555603 -0.02139282 C61.30774706 -0.39672098 117.97078409 14.19371405 164.6796875 51.203125 C165.50339844 51.83476563 166.32710938 52.46640625 167.17578125 53.1171875 C182.48900867 65.02475314 196.73996063 78.92792283 208.6796875 94.203125 C209.44539063 95.14027344 210.21109375 96.07742187 211 97.04296875 C242.45995279 136.34262039 262.60151837 188.9706343 262.8828125 239.5234375 C262.88987213 240.37667099 262.89693176 241.22990448 262.90420532 242.10899353 C263.27953348 300.83118456 248.68909845 357.49422159 211.6796875 404.203125 C211.04804688 405.02683594 210.41640625 405.85054688 209.765625 406.69921875 C197.85958006 422.01049053 183.95691113 436.26911651 168.6796875 448.203125 C167.70773437 448.99203125 166.73578125 449.7809375 165.734375 450.59375 C122.38902799 485.13966566 67.11406739 502.74219148 12.0546875 502.515625 C11.13215179 502.51380219 10.20961609 502.51197937 9.25912476 502.51010132 C-4.8063092 502.46338646 -18.47743107 501.87102579 -32.3203125 499.203125 C-33.22023926 499.04215332 -34.12016602 498.88118164 -35.04736328 498.71533203 C-73.43989327 491.76582347 -110.68843881 475.47403523 -141.3203125 451.203125 C-142.55587891 450.25566406 -142.55587891 450.25566406 -143.81640625 449.2890625 C-159.1009184 437.40382585 -173.46379076 423.50605799 -185.3203125 408.203125 C-186.03574219 407.29304688 -186.75117188 406.38296875 -187.48828125 405.4453125 C-218.4994913 365.15818298 -239.23793139 314.19257167 -239.5234375 262.8828125 C-239.53402695 261.60296227 -239.53402695 261.60296227 -239.54483032 260.29725647 C-239.92015848 201.57506544 -225.32972345 144.91202841 -188.3203125 98.203125 C-187.68867188 97.37941406 -187.05703125 96.55570312 -186.40625 95.70703125 C-174.50020506 80.39575947 -160.59753613 66.13713349 -145.3203125 54.203125 C-144.34835938 53.41421875 -143.37640625 52.6253125 -142.375 51.8125 C-103.07347275 20.48947828 -50.43671791 0.28064819 0 0 Z M-140.3203125 99.203125 C-141.0525 99.89277344 -141.7846875 100.58242187 -142.5390625 101.29296875 C-147.94991709 106.542786 -152.68691576 112.26306532 -157.3203125 118.203125 C-157.74715332 118.7482373 -158.17399414 119.29334961 -158.61376953 119.85498047 C-166.53960731 130.05859101 -173.20501324 140.82862029 -179.3203125 152.203125 C-179.68753418 152.88536133 -180.05475586 153.56759766 -180.43310547 154.27050781 C-205.87120327 202.51806015 -209.87107506 261.10987788 -194.34375 312.98828125 C-186.06865436 339.38301507 -173.99460873 363.82788475 -156.3203125 385.203125 C-155.85512207 385.7698291 -155.38993164 386.3365332 -154.91064453 386.92041016 C-144.78116072 399.19559819 -133.99628457 410.51066317 -121.3203125 420.203125 C-120.69979004 420.68362305 -120.07926758 421.16412109 -119.43994141 421.65917969 C-74.09014161 456.54364107 -16.59494832 471.64837947 40.08154297 464.5625 C87.53444093 457.99882158 129.3268379 436.10750589 163.6796875 403.203125 C164.42992187 402.49414062 165.18015625 401.78515625 165.953125 401.0546875 C181.49783714 386.00150776 193.82753325 367.35582137 203.6796875 348.203125 C204.29199219 347.04296875 204.90429688 345.8828125 205.53515625 344.6875 C230.6800514 294.28263008 232.72595007 235.14072665 215.47558594 182.0859375 C212.45726637 173.1891581 208.81033988 164.63662371 204.6796875 156.203125 C204.35887207 155.54763672 204.03805664 154.89214844 203.70751953 154.21679688 C193.48337969 133.63351077 179.52137439 115.74217155 163.6796875 99.203125 C162.97070312 98.45289063 162.26171875 97.70265625 161.53125 96.9296875 C156.30588932 91.5337028 150.59769294 86.81931887 144.6796875 82.203125 C144.1345752 81.77628418 143.58946289 81.34944336 143.02783203 80.90966797 C111.47553192 56.40085206 74.23933947 41.90124312 34.6796875 37.203125 C33.64457031 37.07164063 32.60945312 36.94015625 31.54296875 36.8046875 C-32.87948338 30.00402922 -94.07772981 55.62338766 -140.3203125 99.203125 Z " fill="#EEEEEE" transform="translate(244.3203125,4.796875)"/>
<path d="M0 0 C18.48 0 36.96 0 56 0 C56 69.96 56 139.92 56 212 C37.52 212 19.04 212 0 212 C0 142.04 0 72.08 0 0 Z " fill="#F3F3F3" transform="translate(287,148)"/>
<path d="M0 0 C18.48 0 36.96 0 56 0 C56 69.96 56 139.92 56 212 C37.52 212 19.04 212 0 212 C0 142.04 0 72.08 0 0 Z " fill="#F3F3F3" transform="translate(165,148)"/>
</svg>
